<svg id="Layer_1" data-name="Layer 1" xmlns="http://www.w3.org/2000/svg" viewBox="0 0 571.72 606.46"><defs><style>.cls-1{fill:#fff;}</style></defs><title>site2</title><path class="cls-1" d="M515.93,355c-3-13.61,3.36-28.82,16-35.22,12-6.05,31.85-4.14,38.94,8.81,3.81,7,2.91,18.27-.77,25.06-3.36,6.19-9.88,14.52-17,16.29-15.74,3.93-32.91-4-39.15-19-.73-1.75-3.63-1-2.89.8A34.92,34.92,0,0,0,541,373.39c6.43.53,13.67.46,19.1-3.48a45.3,45.3,0,0,0,14-17.75c2.48-6.06,2.59-13.79,1.2-20.13s-5.92-10.86-11.34-14c-11.09-6.44-26-6.26-36.65,1C515.51,327,510,342,513,355.75c.42,1.88,3.31,1.09,2.9-.8Z" transform="translate(-272.73 -62)"/><path class="cls-1" d="M576.56,521.26c-3-13.6,3.36-28.82,16-35.21,12-6.05,31.85-4.14,38.94,8.81,3.81,7,2.92,18.26-.77,25-3.36,6.19-9.87,14.53-17,16.3-15.74,3.92-32.9-4-39.14-19-.73-1.76-3.64-1-2.9.8a35,35,0,0,0,29.91,21.69c6.43.52,13.68.45,19.1-3.49a45.2,45.2,0,0,0,14-17.74c2.47-6.06,2.59-13.8,1.19-20.13s-5.91-10.86-11.33-14c-11.1-6.43-26-6.26-36.65,1-11.84,8-17.33,23-14.32,36.76.41,1.89,3.3,1.09,2.89-.8Z" transform="translate(-272.73 -62)"/><path class="cls-1" d="M708.61,370.67c-4-15.57,10.77-25.23,24.66-24.55a30,30,0,0,1,28,24.05,35.68,35.68,0,0,1,.69,9.56c-.09,1.59,0,3.79-.73,5.25-1.5,3-3.09,2.69-5.5,3.56-2.84,1-5.3,2.86-8,4.24a34,34,0,0,1-12.15,3.61c-7.15.71-14.95-.82-20.38-5.79s-8-12.72-4.73-19.58c.82-1.74-1.77-3.27-2.59-1.52-5.12,10.84,1.34,22.9,11.82,27.51a33.46,33.46,0,0,0,21,1.54A37.58,37.58,0,0,0,750,395c1.61-.88,3.12-1.94,4.78-2.74,2-.94,4.17-1.17,6.09-2.1,4.88-2.37,4.42-10.91,4.08-15.44a35.81,35.81,0,0,0-6.34-18.13c-7.23-10.14-19.79-14.92-32-13.16-13.76,2-24.54,13.69-20.89,28,.47,1.87,3.36,1.08,2.89-.8Z" transform="translate(-272.73 -62)"/><path class="cls-1" d="M583.31,462.4a326.08,326.08,0,0,0-22.65-73.24c-.78-1.76-3.36-.23-2.59,1.52a322.89,322.89,0,0,1,22.35,72.52c.35,1.89,3.24,1.09,2.89-.8Z" transform="translate(-272.73 -62)"/><path class="cls-1" d="M674.73,349.69a126.46,126.46,0,0,1-71.87-13.92c-1.71-.9-3.23,1.69-1.52,2.59a129.29,129.29,0,0,0,73.39,14.33c1.9-.2,1.92-3.2,0-3Z" transform="translate(-272.73 -62)"/><path class="cls-1" d="M697.58,423.35l-37.27,48.32c-1.17,1.53,1.43,3,2.59,1.51l37.27-48.32c1.18-1.53-1.43-3-2.59-1.51Z" transform="translate(-272.73 -62)"/><path class="cls-1" d="M274.18,108.82l72,4c1.93.11,1.93-2.89,0-3l-72-4c-1.93-.11-1.93,2.89,0,3Z" transform="translate(-272.73 -62)"/><path class="cls-1" d="M376.06,114.9h17.57a1.5,1.5,0,0,0,0-3H376.06a1.5,1.5,0,0,0,0,3Z" transform="translate(-272.73 -62)"/><path class="cls-1" d="M374.3,127.2h22.84a1.5,1.5,0,0,0,0-3H374.3a1.5,1.5,0,0,0,0,3Z" transform="translate(-272.73 -62)"/><path class="cls-1" d="M437.49,106.23a30,30,0,0,0-14.33,5.48c-3,2.21-7.45,6.06-8.08,10-1.62,10.25,20.91,7.38,26,7.14,1.92-.09,1.93-3.09,0-3-3.57.17-7.13.24-10.71.14-3.27-.08-13.6.91-11.26-5.93,1-2.86,5.64-6,8-7.41a26.85,26.85,0,0,1,10.36-3.45c1.89-.24,1.91-3.24,0-3Z" transform="translate(-272.73 -62)"/><path class="cls-1" d="M454.85,127.45a70.3,70.3,0,0,1,14.67-46.17L467,80.62l6.66,32.32c.85,4.15,1.25,17.3,8.45,15.91,2.75-.53,4.39-3.24,5.58-5.5,2.39-4.55,4.3-9.43,6.3-14.16q6.35-15.09,11.39-30.67c.6-1.84-2.3-2.63-2.9-.8-2.37,7.28-4.92,14.5-7.71,21.63q-2.37,6-4.95,12c-1.42,3.27-2.76,8.43-5.05,11.1-6,7-7.09-4.85-7.63-7.48l-2.35-11.41-4.89-23.76a1.51,1.51,0,0,0-2.51-.66,73.46,73.46,0,0,0-15.55,48.29c.08,1.92,3.08,1.93,3,0Z" transform="translate(-272.73 -62)"/><path class="cls-1" d="M529.12,77.88c-6.64,11.27-13.71,23.33-14.17,36.77-.36,10.35,3.3,20.49,11.62,26.91,1.53,1.18,3-1.42,1.52-2.59-20-15.45-6.27-42.78,3.62-59.57a1.5,1.5,0,0,0-2.59-1.52Z" transform="translate(-272.73 -62)"/><path class="cls-1" d="M544.54,125.69A145.58,145.58,0,0,1,546.3,91c.32-1.89-2.57-2.7-2.89-.8a148.65,148.65,0,0,0-1.87,35.5c.13,1.91,3.13,1.93,3,0Z" transform="translate(-272.73 -62)"/><path class="cls-1" d="M567.54,111.39h14.05a1.5,1.5,0,0,0,0-3H567.54a1.5,1.5,0,0,0,0,3Z" transform="translate(-272.73 -62)"/><path class="cls-1" d="M598.23,120.32,606.79,92H603.9c2.68,9.39,5,19,8.06,28.25,1.57,4.7,4.5,6.9,9.11,4C632.48,117.14,635,101,636.76,88.9c.27-1.89-2.62-2.71-2.89-.8-1.45,10-3.09,21.07-9.68,29.16-2,2.48-6.15,7.45-9.17,2.77-1.46-2.28-1.84-6.41-2.59-9l-5.64-19.77a1.51,1.51,0,0,0-2.89,0l-8.56,28.28c-.56,1.85,2.33,2.64,2.89.8Z" transform="translate(-272.73 -62)"/><path class="cls-1" d="M649.44,78.26a136.46,136.46,0,0,1-23,75.7c-1.07,1.61,1.52,3.12,2.59,1.52a139.34,139.34,0,0,0,23.37-77.22,1.5,1.5,0,0,0-3,0Z" transform="translate(-272.73 -62)"/><path class="cls-1" d="M665.91,118.41H690.5a1.5,1.5,0,0,0,0-3H665.91a1.5,1.5,0,0,0,0,3Z" transform="translate(-272.73 -62)"/><path class="cls-1" d="M727.09,125.09a21.21,21.21,0,0,0,25.82-15.26,1.52,1.52,0,0,0-1.85-1.84,31.33,31.33,0,0,0-18.71,10.22c-3.17,3.61-8.58,11.14-6,16.26,2.72,5.34,13.75,3.76,18.38,3.15a49.29,49.29,0,0,0,22.92-9.38c1.54-1.14,0-3.74-1.51-2.59a47.33,47.33,0,0,1-15.48,7.71c-4.91,1.37-13.46,3.28-18.45,1.23-7.33-3,.72-13,4.25-16.34a28.69,28.69,0,0,1,15.38-7.37L750,109a18.18,18.18,0,0,1-22.13,13.15,1.51,1.51,0,0,0-.8,2.9Z" transform="translate(-272.73 -62)"/><path class="cls-1" d="M784.38,132.64a81.7,81.7,0,0,1,12.18-33.85l-2.74-1.16a45,45,0,0,0,11,42.18,1.52,1.52,0,0,0,2.36-.31,213.43,213.43,0,0,1,26.92-39c1.26-1.45-.85-3.58-2.12-2.12A216.82,216.82,0,0,0,804.59,138l2.35-.31a41.81,41.81,0,0,1-10.23-39.25A1.51,1.51,0,0,0,794,97.27a85,85,0,0,0-12.59,35.37c-.23,1.91,2.77,1.9,3,0Z" transform="translate(-272.73 -62)"/><path class="cls-1" d="M716.66,628.84a1.5,1.5,0,0,0,0-3,1.5,1.5,0,0,0,0,3Z" transform="translate(-272.73 -62)"/><path class="cls-1" d="M724.31,633.39l1.39,15.77c.36,4.11,3.08,16.19-4,16.3-1.93,0-1.93,3,0,3,5.1-.08,7.55-4.38,7.73-9.09.32-8.49-1.39-17.52-2.13-26-.17-1.91-3.17-1.92-3,0Z" transform="translate(-272.73 -62)"/><path class="cls-1" d="M725.48,629.59a1.5,1.5,0,0,0,0-3,1.5,1.5,0,0,0,0,3Z" transform="translate(-272.73 -62)"/><path class="cls-1" d="M715.32,632.87V643.1a1.5,1.5,0,0,0,3,0V632.87a1.5,1.5,0,0,0-3,0Z" transform="translate(-272.73 -62)"/><path class="cls-1" d="M710,594.66l-3.13,38.64c-.16,1.93,2.84,1.92,3,0L713,594.66c.16-1.92-2.84-1.91-3,0Z" transform="translate(-272.73 -62)"/><path class="cls-1" d="M708.87,613.08c-6.38-1.19-12.94,3.12-13,10a10.69,10.69,0,0,0,4,8.43c2.84,2.17,5.49,1.62,8.38-.14,1.65-1,.14-3.6-1.51-2.59-4.9,3-8.72-2.59-7.72-7.17.88-4.05,5.08-6.34,9-5.61,1.89.36,2.7-2.53.8-2.89Z" transform="translate(-272.73 -62)"/><path class="cls-1" d="M770.85,401.53l44.93,97c.81,1.75,3.4.23,2.59-1.51l-44.93-97c-.81-1.75-3.4-.23-2.59,1.51Z" transform="translate(-272.73 -62)"/><path class="cls-1" d="M814.84,561.28c6.26,0,14.2,1.88,19.08-2.87a36.22,36.22,0,0,0,9.66-18.28c1.21-5.79,1.7-13.32-2.16-18.3-3.71-4.8-10.17-5.52-15.8-5.87-6.62-.41-14-.48-19.66,3.64-5.22,3.84-8.59,10.86-9.92,17-3.19,14.77,7.57,23.57,20.65,27a1.5,1.5,0,0,0,.8-2.89c-11.71-3.1-21.64-10.75-18.36-24.13,1.28-5.26,4.12-11.18,8.53-14.5,4.68-3.53,10.84-3.53,16.45-3.27,5.33.24,12.41.5,15.53,5.63,2.78,4.56,1.94,11.45.7,16.34a33.51,33.51,0,0,1-8,14.87c-4,4.15-12.06,2.59-17.48,2.56a1.5,1.5,0,0,0,0,3Z" transform="translate(-272.73 -62)"/><path class="cls-1" d="M674.1,527.23a367.37,367.37,0,0,0,87.1,14.2c1.93.08,1.93-2.92,0-3a363.8,363.8,0,0,1-86.3-14.09,1.5,1.5,0,0,0-.8,2.89Z" transform="translate(-272.73 -62)"/><path class="cls-1" d="M275.11,74.39c4.4-3,11.7-5.21,17.05-3.59,6.17,1.86,8.48,14.19,5.42,19.18-1.56,2.55-4.58,4.19-7.24,5.53a20.42,20.42,0,0,1-4.2,1.63l-2.76.39c-2.91.51-4-.88-3.29-4.18-.73-4.29-.84-4.23,2.57-5.85A19.76,19.76,0,0,1,287,86.08a26.68,26.68,0,0,1,10.79,0c1.88.36,2.69-2.54.79-2.9-7.28-1.39-22.34-.87-23.91,9-.62,3.84,1.62,6.84,5.25,8,4.82,1.46,10-.83,14.07-3.24,3.77-2.24,7-4.55,7.63-9.13s-.33-10.89-2.55-14.82c-5-8.75-18.67-5.82-25.5-1.13-1.59,1.08-.09,3.68,1.51,2.59Z" transform="translate(-272.73 -62)"/><path class="cls-1" d="M314.5,96.9a82.28,82.28,0,0,1,10.27-32.66L322,63.88c2.55,7.82,4.84,15.71,6.79,23.7.82,3.34,1.7,10.67,7,9.5,1.82-.41,2.18-1.4,2.92-2.93a87.68,87.68,0,0,1,6.17-10A105.66,105.66,0,0,0,355.16,64c.7-1.81-2.2-2.59-2.89-.8a102.74,102.74,0,0,1-7.59,15.7c-1.36,2.27-2.82,4.47-4.34,6.64-1,1.45-2.46,5.07-3.77,6-.32.24-3.1.85-3.61.38s-.64-2.63-.8-3.28c-.67-2.77-1.36-5.53-2.09-8.28-1.55-5.8-3.28-11.55-5.15-17.27a1.52,1.52,0,0,0-2.74-.35A86.16,86.16,0,0,0,311.5,96.9c-.19,1.92,2.81,1.9,3,0Z" transform="translate(-272.73 -62)"/><path class="cls-1" d="M279.58,127.35c5.17-.66,11.47-2.61,16.35-.15,6.5,3.27,7.83,10.66,3.08,16.19a12,12,0,0,1-8.42,4.33,13.78,13.78,0,0,1-3.95-.33l-2.37-.84q-2.43-.53-.36-2.28c2.24-4.72,13.43-4,17.84-3.69,1.92.15,1.92-2.85,0-3a41.87,41.87,0,0,0-16.89,2c-2.48.85-5.69,2.24-5.63,5.4.14,7,13,6.22,17,4.33,6.52-3.08,10.94-11.74,7.76-18.67-4.45-9.71-16.2-7.3-24.44-6.25-1.89.24-1.92,3.24,0,3Z" transform="translate(-272.73 -62)"/><path class="cls-1" d="M316.94,122.73v15c0,3.64-.68,8,.31,11.53,1.64,5.83,11.47,3.21,15.91,2.54,1.9-.29,1.1-3.18-.8-2.89-2.62.39-6.5,1.29-9.18.62-4.26-1.06-3.25-5.63-3.25-9l0-17.76a1.5,1.5,0,0,0-3,0Z" transform="translate(-272.73 -62)"/><path class="cls-1" d="M313.67,137.74q12.51-.24,25,.36c1.93.09,1.92-2.91,0-3q-12.51-.61-25-.36c-1.93,0-1.93,3,0,3Z" transform="translate(-272.73 -62)"/></svg>